HIERARCHY
ROOT Hips
{
	OFFSET 0.00000 0.00000 0.00000
	CHANNELS 6 Xposition Yposition Zposition Zrotation Yrotation Xrotation 
	JOINT LHipJoint
	{
		OFFSET 0 0 0
		CHANNELS 3 Zrotation Yrotation Xrotation
		JOINT LeftUpLeg
		{
			OFFSET 1.37590 -1.78394 0.89329
			CHANNELS 3 Zrotation Yrotation Xrotation
			JOINT LeftLeg
			{
				OFFSET 2.47928 -6.81178 0.00000
				CHANNELS 3 Zrotation Yrotation Xrotation
				JOINT LeftFoot
				{
					OFFSET 2.63345 -7.23535 0.00000
					CHANNELS 3 Zrotation Yrotation Xrotation
					JOINT LeftToeBase
					{
						OFFSET 0.23938 -0.65768 2.27012
						CHANNELS 3 Zrotation Yrotation Xrotation
						End Site
						{
							OFFSET 0.00000 -0.00000 1.18363
						}
					}
				}
			}
		}
	}
	JOINT RHipJoint
	{
		OFFSET 0 0 0
		CHANNELS 3 Zrotation Yrotation Xrotation
		JOINT RightUpLeg
		{
			OFFSET -1.33617 -1.78394 0.89329
			CHANNELS 3 Zrotation Yrotation Xrotation
			JOINT RightLeg
			{
				OFFSET -2.56922 -7.05888 0.00000
				CHANNELS 3 Zrotation Yrotation Xrotation
				JOINT RightFoot
				{
					OFFSET -2.56568 -7.04915 0.00000
					CHANNELS 3 Zrotation Yrotation Xrotation
					JOINT RightToeBase
					{
						OFFSET -0.27533 -0.75646 2.18105
						CHANNELS 3 Zrotation Yrotation Xrotation
						End Site
						{
							OFFSET -0.00000 -0.00000 1.15233
						}
					}
				}
			}
		}
	}
	JOINT LowerBack
	{
		OFFSET 0 0 0
		CHANNELS 3 Zrotation Yrotation Xrotation
		JOINT Spine
		{
			OFFSET 0.06190 2.15152 -0.00935
			CHANNELS 3 Zrotation Yrotation Xrotation
			JOINT Spine1
			{
				OFFSET 0.06334 2.15332 0.00872
				CHANNELS 3 Zrotation Yrotation Xrotation
				JOINT Neck
				{
					OFFSET 0 0 0
					CHANNELS 3 Zrotation Yrotation Xrotation
					JOINT Neck1
					{
						OFFSET -0.04202 1.66908 0.23524
						CHANNELS 3 Zrotation Yrotation Xrotation
						JOINT Head
						{
							OFFSET 0.07510 1.69357 -0.24440
							CHANNELS 3 Zrotation Yrotation Xrotation
							End Site
							{
								OFFSET 0.02556 1.71719 -0.11000
							}
						}
					}
				}
				JOINT LeftShoulder
				{
					OFFSET 0 0 0
					CHANNELS 3 Zrotation Yrotation Xrotation
					JOINT LeftArm
					{
						OFFSET 3.67168 1.26306 -0.41342
						CHANNELS 3 Zrotation Yrotation Xrotation
						JOINT LeftForeArm
						{
							OFFSET 4.68510 -0.00000 -0.00000
							CHANNELS 3 Zrotation Yrotation Xrotation
							JOINT LeftHand
							{
								OFFSET 3.39626 -0.00000 -0.00000
								CHANNELS 3 Zrotation Yrotation Xrotation
								JOINT LeftFingerBase
								{
									OFFSET 0 0 0
									CHANNELS 3 Zrotation Yrotation Xrotation
									JOINT LeftHandIndex1
									{
										OFFSET 0.48608 -0.00000 -0.00000
										CHANNELS 3 Zrotation Yrotation Xrotation
										End Site
										{
											OFFSET 0.39189 -0.00000 -0.00000
										}
									}
								}
								JOINT LThumb
								{
									OFFSET 0 0 0
									CHANNELS 3 Zrotation Yrotation Xrotation
									End Site
									{
										OFFSET 0.39787 -0.00000 0.39787
									}
								}
							}
						}
					}
				}
				JOINT RightShoulder
				{
					OFFSET 0 0 0
					CHANNELS 3 Zrotation Yrotation Xrotation
					JOINT RightArm
					{
						OFFSET -3.04136 1.42992 -0.76390
						CHANNELS 3 Zrotation Yrotation Xrotation
						JOINT RightForeArm
						{
							OFFSET -5.55576 -0.00000 -0.00000
							CHANNELS 3 Zrotation Yrotation Xrotation
							JOINT RightHand
							{
								OFFSET -3.32774 -0.00000 -0.00000
								CHANNELS 3 Zrotation Yrotation Xrotation
								JOINT RightFingerBase
								{
									OFFSET 0 0 0
									CHANNELS 3 Zrotation Yrotation Xrotation
									JOINT RightHandIndex1
									{
										OFFSET -0.50763 -0.00000 -0.00000
										CHANNELS 3 Zrotation Yrotation Xrotation
										End Site
										{
											OFFSET -0.40926 -0.00000 -0.00000
										}
									}
								}
								JOINT RThumb
								{
									OFFSET 0 0 0
									CHANNELS 3 Zrotation Yrotation Xrotation
									End Site
									{
										OFFSET -0.41551 -0.00000 0.41551
									}
								}
							}
						}
					}
				}
			}
		}
	}
}
MOTION
Frames: 10
Frame Time: 0.05
0.00 0.00 0.00 0 0 0 0 0 0 -21 0 0 0 0 0 0 0 0 0 0 0 0 0 0 21 0 0 0 0 0 0 0 0 0 0 0 0 0 0 0 0 0 0 0 0 0 0 -16 0 0 21 0 0 11 0 0 0 -8 0 0 0 0 0 0 0 0 0 0 0 0 0 0 0 0 0 0 0 0 8 0 0 0 0 0 0 0 0 0 0 0 0 0 0 0 0 0
0.00 0.00 0.00 -118.4560 -82.9781 127.7500 0.0000 0.0000 0.0000 -11.9399 -5.3240 -5.4970 0.2383 3.1418 8.6738 0.2574 1.2654 -10.1304 0.0761 1.7798 4.8975 0.0000 0.0000 0.0000 26.9699 7.1175 -8.6585 -0.5461 -4.7344 13.1525 0.1881 -10.9084 -12.2582 -0.5285 -4.6586 12.9375 4.6145 0.2229 -6.0651 2.7590 -0.1196 -1.9201 0.2431 -0.0960 1.4193 -6.4431 -4.8615 -24.7929 7.8738 -6.1421 15.8249 2.8607 -2.3636 9.5094 -0.0000 0.0000 0.0000 -94.5923 -3.8651 21.6392 17.4864 -27.4946 -4.3095 -0.0000 -0.0000 13.6475 12.3354 23.7676 5.0367 -7.1250 0.0000 -0.0000 -17.5728 53.3790 -3.7114 -0.0000 0.0000 0.0000 85.6619 11.0955 26.1535 -22.0642 33.0495 -6.6208 0.0000 -0.0000 -7.1602 9.5316 -26.8556 -4.3377 7.1250 -0.0000 -0.0000 39.8494 -52.2474 -8.1752
0.00 0.00 0.00 -109.7050 -84.0144 118.8890 0.0000 0.0000 0.0000 -11.9723 -6.6334 -5.4231 0.2549 3.2483 8.9708 0.2323 1.5492 -9.8059 0.0524 1.4767 4.0615 0.0000 0.0000 0.0000 27.1040 6.0995 -8.0915 -0.4535 -4.3201 11.9791 0.1383 -10.4298 -12.4227 -0.5667 -4.8213 13.3996 3.8952 -0.2255 -7.3343 3.1599 -0.7522 -2.8828 1.0084 -0.4380 1.1285 -8.0024 -5.6296 -22.6167 8.9605 -7.0799 15.9079 3.3691 -2.8333 9.3442 0.0000 -0.0000 0.0000 -93.7378 -2.1125 49.1918 34.4254 -44.3974 -14.4098 -0.0000 0.0000 -14.9317 -4.0735 30.7294 -2.0841 -7.1250 0.0000 -0.0000 -38.1445 56.3606 -11.8241 0.0000 -0.0000 0.0000 86.1923 6.5865 52.4518 -39.4073 47.7148 -17.9995 0.0000 -0.0000 -12.6307 19.1656 -25.0844 -8.3823 7.1250 -0.0000 -0.0000 46.4868 -49.2661 -6.1013
0.00 0.00 0.00 -107.4390 -83.8863 118.2390 0.0000 0.0000 0.0000 -9.9331 -6.7977 -15.1245 1.7006 8.2124 23.3610 0.5358 -0.7479 -13.5894 0.0083 -0.5869 -1.6126 0.0000 0.0000 0.0000 28.6752 6.3359 -11.4476 -0.8648 -5.9299 16.5812 -0.1756 -9.0143 -15.6297 -0.4812 -4.4486 12.3423 5.8698 -0.9020 -4.3060 3.9102 -1.5447 -2.9128 0.6833 -0.8841 -0.6323 -7.8429 -4.7498 -18.3700 5.3931 -5.5438 16.9730 2.3913 -2.5806 8.7000 0.0000 -0.0000 0.0000 -94.5359 -1.4261 31.8195 20.1375 -30.8076 -5.6016 -0.0000 -0.0000 10.6250 10.8040 25.8757 4.7608 -7.1250 0.0000 -0.0000 -20.2456 55.0927 -5.1737 0.0000 -0.0000 0.0000 87.1098 -0.8212 26.5718 -20.5846 31.3403 -5.8324 0.0000 -0.0000 -21.5864 12.1856 -34.8863 -7.0409 7.1250 -0.0000 -0.0000 49.6014 -57.7322 -18.3911
0.00 0.00 0.00 -99.8503 -82.7292 110.0530 0.0000 0.0000 0.0000 -7.3437 -7.8271 -25.3114 4.5930 12.9103 39.0336 0.6291 -0.8303 -14.7234 0.2691 -3.3372 -9.2191 0.0000 0.0000 0.0000 31.1924 5.4177 -9.3732 -0.8602 -5.9144 16.5362 -0.2775 -8.9498 -16.9154 -0.4258 -4.1879 11.6059 7.4722 -0.1181 -3.8159 4.5571 -0.5808 -2.1710 0.4964 -0.4022 -0.1226 -7.2771 -4.2041 -19.1384 4.5387 -4.6182 15.3370 2.1214 -2.1672 8.1785 0.0000 -0.0000 0.0000 -93.5404 -2.5937 13.2686 12.8208 -21.0240 -2.3886 -0.0000 -0.0000 21.7053 11.2853 27.3718 5.2421 -7.1250 0.0000 -0.0000 -20.6969 56.5872 -6.0593 0.0000 -0.0000 0.0000 87.6529 1.4301 9.3284 -13.1251 21.4702 -2.4989 0.0000 -0.0000 -14.7755 12.3792 -33.5605 -6.9181 7.1250 -0.0000 -0.0000 48.3510 -56.7561 -16.5580
0.00 0.00 0.00 -111.1110 -80.6995 120.7060 0.0000 0.0000 0.0000 -1.9395 -11.4908 -33.8493 0.9763 6.2901 17.6285 -0.0597 6.0319 -6.6681 0.3446 -3.7722 -10.4367 0.0000 0.0000 0.0000 33.2353 2.2875 1.6656 -0.6554 -5.1781 14.4174 -0.7392 -5.7076 -19.3006 -0.0129 -0.7331 2.0146 9.2352 2.9688 -3.8588 3.9045 3.5409 -3.5074 -0.9994 1.5465 -1.1691 -8.6099 -6.1339 -17.1935 6.4985 -7.1557 9.7346 2.7063 -3.2872 6.2976 0.0000 0.0000 0.0000 -83.5638 -9.2528 21.7179 20.3580 -31.0713 -5.7150 -0.0000 -0.0000 8.1412 9.7159 27.9757 4.5920 -7.1250 0.0000 -0.0000 -22.6769 56.8239 -6.8119 0.0000 0.0000 0.0000 84.4189 42.3591 25.8423 -26.9726 38.1530 -9.4822 0.0000 -0.0000 -33.1187 8.4488 -35.0882 -4.8804 7.1250 -0.0000 -0.0000 46.5060 -58.7218 -18.0220
0.00 0.00 0.00 -98.5035 -82.6565 107.6540 0.0000 0.0000 0.0000 -6.3299 -12.2578 -27.9661 0.6476 5.1478 14.3306 -0.0094 3.1305 -3.9223 0.1735 -2.6829 -7.3970 0.0000 0.0000 0.0000 29.8963 0.3105 2.4614 -1.7126 -8.2400 23.4453 -0.2058 -6.6884 -13.5134 -0.2315 3.0965 -8.5476 9.6189 3.1027 -5.3222 2.2974 3.6286 -5.2925 -2.8370 1.4681 -2.0962 -8.4068 -6.9911 -15.2989 8.2915 -8.5478 5.6766 3.1630 -3.9037 4.8970 0.0000 0.0000 0.0000 -79.5756 -20.0185 31.4123 30.9367 -41.6829 -12.0277 -0.0000 -0.0000 3.1092 11.7718 26.8422 5.3757 -7.1250 0.0000 -0.0000 -19.8702 56.1904 -5.6097 0.0000 0.0000 0.0000 72.4503 68.0714 13.1270 -47.2455 51.8223 -23.9913 0.0000 -0.0000 -29.6481 -10.9625 -27.6996 5.1450 7.1250 -0.0000 -0.0000 21.2381 -56.8261 -6.3524
0.00 0.00 0.00 -72.8644 -84.9565 80.4424 0.0000 0.0000 0.0000 -12.5342 -11.4512 -21.2993 0.7261 5.4448 15.1817 0.0340 -0.3200 -3.3828 0.0076 -0.5613 -1.5423 0.0000 0.0000 0.0000 25.5130 -0.7845 -3.2886 -4.4046 -12.6801 38.1827 0.4431 -11.7555 -3.1194 -0.0413 1.3116 -3.6066 7.3130 2.1745 -5.5780 1.3620 2.4840 -5.7578 -2.5885 0.9339 -2.6044 -8.6304 -7.0554 -13.2872 9.9164 -8.6459 0.9640 3.8000 -3.9926 3.2384 -0.0000 -0.0000 0.0000 -79.1532 -27.1997 36.1352 37.0727 -46.2367 -16.2926 -0.0000 -0.0000 1.1305 12.8535 25.9725 5.7065 -7.1250 0.0000 -0.0000 -18.2592 55.5833 -4.8598 -0.0000 -0.0000 0.0000 57.9310 73.0702 0.2492 -57.6051 55.6372 -32.3561 0.0000 -0.0000 -26.2799 -15.9541 -25.6288 7.0490 7.1250 -0.0000 -0.0000 14.9252 -55.8690 -4.0445
0.00 0.00 0.00 -38.2695 -86.0828 43.7589 0.0000 0.0000 0.0000 -17.9411 -10.3600 -13.3732 0.7594 5.5654 15.5284 0.0746 -3.1536 -5.0084 0.0540 1.4994 4.1241 0.0000 0.0000 0.0000 20.8096 -0.0968 -13.4244 -8.2632 -16.3095 53.5054 0.5948 -15.3984 2.2285 -0.0897 -1.9313 5.3157 3.9754 0.9735 -4.9243 1.0698 1.0572 -5.4095 -1.0937 0.3497 -2.7681 -9.2515 -6.2114 -10.0624 11.3669 -7.4119 -5.5096 4.6248 -3.5426 0.7890 -0.0000 0.0000 0.0000 -79.2450 -35.1567 39.5427 41.7512 -49.0739 -19.7524 -0.0000 0.0000 -0.2414 13.1957 25.2874 5.7194 -7.1250 0.0000 -0.0000 -17.5282 54.9956 -4.4027 -0.0000 0.0000 0.0000 53.1438 71.7384 0.5889 -64.0298 57.2915 -37.7137 0.0000 -0.0000 -22.8042 -16.2907 -26.3816 7.3989 7.1250 -0.0000 -0.0000 14.9913 -56.6731 -4.3573
0.00 0.00 0.00 -2.5679 -81.8182 8.8110 0.0000 0.0000 0.0000 -18.9051 -5.5883 3.0810 1.7743 8.3793 23.8721 -0.1940 -11.6666 -5.0150 0.3374 -3.7330 -10.3266 0.0000 0.0000 0.0000 14.7584 8.6595 -29.5633 -1.0172 -6.4166 17.9979 0.9869 -17.2973 -7.6765 -0.4608 -4.3542 12.0754 0.7774 0.2949 -3.1740 1.7499 0.3264 -4.3622 1.3673 0.1305 -2.7086 -9.4816 -1.8774 -0.9539 10.4131 -1.9048 -21.9204 5.1152 -1.2177 -6.2120 0.0000 -0.0000 0.0000 -87.1990 -63.2714 45.2719 84.6157 -59.8902 -55.3388 -0.0000 -0.0000 0.6124 19.5920 27.4044 9.3036 -7.1250 0.0000 -0.0000 -12.0864 58.3943 -3.9972 0.0000 -0.0000 0.0000 82.4383 66.8934 46.6926 -83.5119 59.8403 -54.3841 0.0000 -0.0000 -20.5208 -11.8408 -34.9572 6.8498 7.1250 -0.0000 -0.0000 26.4945 -63.6015 -12.3846
